<svg version="1.2" xmlns="http://www.w3.org/2000/svg" viewBox="0 0 1524 302" width="1524" height="302">
	<title>Aritzia_logo_(2017)-svg</title>
	<style>
		.s0 { fill:rgb(24, 28, 32) } 
	</style>
	<g id="layer1">
		<g id="g765">
			<path id="path720" fill-rule="evenodd" class="s0" d="m193.4 224.9h-125.9l-32.4 77h-34.3v-0.8c2.8-3.5 11.5-15.4 22.1-40.3l93.1-216.9-4.3-10.3c-6.7-16.6-12.6-26.5-18.6-32v-0.8h52.1l111.7 260.4c10.7 24.5 17.8 36.4 20.9 39.9v0.8h-51.7zm-9.8-22.9l-53.7-125.3-52.5 125.3z"/>
			<path id="path722" fill-rule="evenodd" class="s0" d="m421.1 147.8c23.6-9.1 40.2-31.2 40.2-66.4 0-41.9-30.4-61.2-66.3-61.2h-37.5v281.7h-54.4v-0.8c2.7-5.1 9.1-16.2 9.1-41.4v-216.6c0-25.3-6.4-36.4-9.1-41.5v-0.8h110.5c43 0 95.1 20.6 95.1 77.5 0 52.9-39.9 75.8-80.1 80.2l77.3 108.7c12.6 17.7 26.8 30 32 33.9v0.8h-59.6l-107-152.1 39.1-17zm209.6 153.3v0.8h-63.6v-0.8c2.8-5.1 9.1-16.2 9.1-41.5v-216.5c0-25.3-6.3-36.4-9.1-41.5v-0.8h63.6v0.8c-2.8 5.1-9.1 16.2-9.1 41.5v216.5c0 25.3 6.3 36.4 9.1 41.5zm181.1 0v0.8h-63.6v-0.8c2.8-5.1 9.1-16.2 9.1-41.5v-239.4c-37.9 4.7-77.7 17.4-90.7 25.7l5.9-45.1h215.1l5.9 45c-12.7-8.2-52.5-20.9-90.8-25.6v239.4c0 25.3 6.3 36.4 9.1 41.5zm304.6 0.8h-217.8v-0.8l159-279.8c-56.4 2.8-95.9 8.3-131.8 24.5l5.9-45h187.9v0.8l-159 280.2c64.7-2 121.1-6.4 161.8-24.9zm105.3-0.8v0.8h-63.5v-0.8c2.7-5.2 9-16.2 9-41.5v-216.6c0-25.3-6.3-36.3-9-41.5v-0.8h63.5v0.8c-2.7 5.2-9.1 16.2-9.1 41.5v216.6c0 25.3 6.3 36.3 9.1 41.5zm217.4-76.3h-125.8l-32.4 77.1h-34.3v-0.8c2.7-3.6 11.4-15.4 22.1-40.3l93.1-217-4.3-10.3c-6.8-16.6-12.7-26.4-18.6-32v-0.8h52.1l111.7 260.5c10.6 24.5 17.7 36.3 20.9 39.9v0.8h-51.7zm-9.9-22.9l-53.6-125.3-52.5 125.3z"/>
		</g>
	</g>
</svg>